<svg width="22" height="30" viewBox="0 0 22 30" fill="none" xmlns="http://www.w3.org/2000/svg">
<path d="M21.68 25.44V6.60002C21.68 4.32002 19.88 2.52002 17.6 2.52002H17.36C17.36 5.04002 15.32 6.96002 12.92 6.96002H8.95995C6.43995 6.96002 4.51995 4.92002 4.51995 2.52002H4.27995C1.99995 2.52002 0.199951 4.32002 0.199951 6.60002V25.56C0.199951 27.84 1.99995 29.64 4.27995 29.64H17.72C19.88 29.52 21.68 27.72 21.68 25.44ZM10.76 25.2C6.91995 25.2 3.91995 22.08 3.91995 18.36C3.91995 14.52 7.03995 11.52 10.76 11.52C14.6 11.52 17.6 14.64 17.6 18.36C17.6 22.2 14.48 25.2 10.76 25.2Z" fill="#FFC10D"/>
<path d="M13.0399 4.6801C14.2399 4.6801 15.0799 3.7201 15.0799 2.6401C15.0799 1.5601 14.1199 0.600098 13.0399 0.600098H9.07992C7.87992 0.600098 7.03992 1.5601 7.03992 2.6401C7.03992 3.7201 7.99992 4.6801 9.07992 4.6801H13.0399Z" fill="#FF4A4A"/>
<path d="M13.2799 16.2001L9.55992 18.4801L8.71992 17.1601C8.35992 16.5601 7.63992 16.4401 7.03992 16.8001C6.43992 17.1601 6.31992 17.8801 6.67992 18.4801L7.87992 20.4001C8.35992 21.1201 9.43992 21.4801 10.1599 20.8801L14.3599 18.2401C14.9599 17.8801 15.0799 17.1601 14.7199 16.5601C14.5999 15.9601 13.8799 15.8401 13.2799 16.2001Z" fill="#FF4A4A"/>
</svg>
